<svg version="1.1" id="Calque_1" xmlns="http://www.w3.org/2000/svg" xmlns:xlink="http://www.w3.org/1999/xlink" x="0px" y="0px" viewBox="0 0 66 57.1" style="enable-background:new 0 0 66 57.1;" xml:space="preserve">
 <style type="text/css">
  .st0{fill-rule:evenodd;clip-rule:evenodd;}
	.st1{fill:#FFFFFF;}
	.st2{fill-rule:evenodd;clip-rule:evenodd;fill:#008C5D;}
	.st3{fill-rule:evenodd;clip-rule:evenodd;fill:#EB2136;}
	.st4{fill-rule:evenodd;clip-rule:evenodd;fill:#FFFFFF;}
 </style>
 <g>
  <polygon class="st0" points="0,38.2 0,0 66,0 66,38.2 33,57.1 	">
  </polygon>
  <polygon class="st1" points="1.7,1.7 1.7,1.7 1.7,37.2 33,55.2 33,55.2 33,55.2 64.3,37.2 64.3,37.2 64.3,1.7 	">
  </polygon>
  <rect x="3.4" y="3.4" class="st2" width="59.2" height="19.2">
  </rect>
  <polygon class="st3" points="3.4,24.3 3.4,36.2 33,53.2 62.6,36.2 62.6,24.3 	">
  </polygon>
  <g>
   <polygon class="st4" points="17.8,20.3 17.8,8.7 24,8.7 24,5.6 7.3,5.6 7.3,8.7 13.5,8.7 13.5,20.3 17.8,20.3 		">
   </polygon>
  </g>
  <g>
   <path class="st4" d="M58,20.1c-3.3,0.6-7.6,0.8-10.8-0.4c-2.7-1-4.3-3.4-4.6-5.7c-0.4-2.9,0.9-5.4,3.6-7.1c3.1-1.9,8-1.8,11.4-0.5
			l0,0v3.2c-2.6-1-6.4-1.9-8.9-0.3c-1.8,1.2-2.3,3-1.9,4.9c0.4,1.5,1.8,2.8,3.4,3.3c1.1,0.3,2.6,0.4,3.8,0.3l0,0v-2.4h-1.7v-2.9h5.6
			L58,20.1z">
   </path>
  </g>
  <g>
   <path class="st4" d="M28.2,17.5l-1.5,2.9h-4.4l7.2-14.7h5l7.4,14.7h-4.5l-1.5-2.9H28.2L28.2,17.5L28.2,17.5z M32,9.3l-2.6,5.2h5.1
			L32,9.3z">
   </path>
  </g>
  <path class="st1" d="M37.8,47.5V26.6c0-0.1,0-0.1-0.1-0.1h-2.1c-0.1,0-0.1,0-0.1,0.1v19.7L33,47.6l-2.5-1.4V26.6
		c0-0.1,0-0.1-0.1-0.1h-2.1h-0.1c0,0,0,0,0,0.1v20.9c0,0,0,0.1,0.1,0.1l4.7,2.7h0.1L37.8,47.5C37.8,47.6,37.8,47.6,37.8,47.5z">
  </path>
  <path class="st1" d="M24.7,45.6h0.1l0.1-0.1v-2.3c0,0,0-0.1-0.1-0.1l-4.5-2.5v-5.5l4.1,1l0.1-0.1v-2.2l-0.1-0.1l-4-0.9v-4.4h4.5
		c0.1,0,0.1,0,0.1-0.1v-1.8c0-0.1,0-0.1-0.1-0.1h-6.7c-0.1,0-0.1,0-0.1,0.1v15.1c0,0,0,0.1,0.1,0.1L24.7,45.6z">
  </path>
  <path class="st1" d="M48.5,41.4v-2c0,0,0-0.1-0.1-0.1h-0.1l-4.4,2.4v-6l4.1-1.1l0.1-0.1v-2v-0.1c0,0,0,0-0.1,0l-4.1,0.9v-4.8h4.5
		c0.1,0,0.1,0,0.1-0.1v-1.8c0-0.1,0-0.1-0.1-0.1h-6.6c-0.1,0-0.1,0-0.1,0.1v18.7c0,0,0,0.1,0.1,0.1h0.1L48.5,41.4
		C48.4,41.5,48.5,41.4,48.5,41.4z">
  </path>
  <path class="st1" d="M12.4,38.5l1.8,1.1h0.1l0.1-0.1V26.6c0-0.1,0-0.1-0.1-0.1h-1.8c-0.1,0-0.1,0-0.1,0.1v4.6l-4.4-1v-3.6
		c0-0.1,0-0.1-0.1-0.1H6H5.9c0,0,0,0,0,0.1v8.2c0,0,0,0.1,0.1,0.1l1.8,1h0.1L8,35.8v-3.7l4.4,1.1V38.5L12.4,38.5z">
  </path>
  <path class="st1" d="M51.9,39.4L51.9,39.4l2-1.1l0,0v-5.2l1.1-0.3l3.3,2.9c0,0,0.1,0.1,0.1,0l1.7-1c0,0,0,0,0.1-0.1c0,0,0,0,0-0.1
		l-2.8-2.4l2-0.5c0.7-0.2,0.8-0.5,0.8-1.2v-3.3c-0.1-0.5-0.4-0.8-0.9-0.8h-0.1h-7.1c-0.1,0-0.1,0.1-0.1,0.1L51.9,39.4L51.9,39.4z
		 M54,28.5h3.9c0.2,0,0.3,0.1,0.3,0.3v1c0,0.2,0,0.3-0.3,0.4L54,31.1V28.5z">
  </path>
 </g>
</svg>